<?xml version="1.0" encoding="UTF-8" standalone="no"?>
<!-- Created with Inkscape (http://www.inkscape.org/) -->

<svg
   xmlns:dc="http://purl.org/dc/elements/1.1/"
   xmlns:cc="http://creativecommons.org/ns#"
   xmlns:rdf="http://www.w3.org/1999/02/22-rdf-syntax-ns#"
   xmlns:svg="http://www.w3.org/2000/svg"
   xmlns="http://www.w3.org/2000/svg"
   xmlns:sodipodi="http://sodipodi.sourceforge.net/DTD/sodipodi-0.dtd"
   xmlns:inkscape="http://www.inkscape.org/namespaces/inkscape"
   id="svg3336"
   version="1.1"
   inkscape:version="0.91 r13725"
   xml:space="preserve"
   width="1935.2626"
   height="458.57874"
   viewBox="0 0 1935.2626 458.57873"
   sodipodi:docname="fs-framestore-logo-0075c9.svg"><metadata
     id="metadata3342"><rdf:RDF><cc:Work
         rdf:about=""><dc:format>image/svg+xml</dc:format><dc:type
           rdf:resource="http://purl.org/dc/dcmitype/StillImage" /><dc:title></dc:title></cc:Work></rdf:RDF></metadata><defs
     id="defs3340"><clipPath
       clipPathUnits="userSpaceOnUse"
       id="clipPath3354"><path
         d="m 0,394.595 1583.784,0 L 1583.784,0 0,0 0,394.595 Z"
         id="path3356"
         inkscape:connector-curvature="0" /></clipPath></defs><sodipodi:namedview
     pagecolor="rgb(255,255,255)"
     bordercolor="rgb(255,255,255)"
     borderopacity="1"
     objecttolerance="10"
     gridtolerance="10"
     guidetolerance="10"
     inkscape:pageopacity="0"
     inkscape:pageshadow="2"
     inkscape:window-width="1920"
     inkscape:window-height="1018"
     id="namedview3338"
     showgrid="false"
     inkscape:zoom="0.37025344"
     inkscape:cx="98.508983"
     inkscape:cy="405.89484"
     inkscape:window-x="-8"
     inkscape:window-y="-8"
     inkscape:window-maximized="1"
     inkscape:current-layer="g3344"
     fit-margin-top="0"
     fit-margin-left="0"
     fit-margin-right="0"
     fit-margin-bottom="0" /><g
     id="g3344"
     inkscape:groupmode="layer"
     inkscape:label="LOGO_BLUE"
     transform="matrix(1.25,0,0,-1.25,-23.069125,477.61375)"><g
       id="g3346"
       transform="translate(470.6664,245.5632)"><path
         d="m 0,0 64.031,0 0,-17.583 -44.548,0 0,-18.887 43.362,0 0,-17.348 -43.362,0 0,-34.216 L 0,-88.034 0,0 Z"
         style="fill:rgb(255,255,255);fill-opacity:1;fill-rule:nonzero;stroke:none"
         id="path3348"
         inkscape:connector-curvature="0" /></g><g
       id="g3350"><g
         id="g3352"
         clip-path="url(#clipPath3354)"><g
           id="g3358"
           transform="translate(613.84,203.5075)"><path
             d="m 0,0 c 10.574,0 15.33,2.614 15.33,12.591 0,10.22 -4.521,12.827 -15.566,12.827 l -22.693,0 L -22.929,0 0,0 Z m -3.204,-16.751 -19.725,0 0,-29.225 -19.005,0 0,88.034 42.53,0 c 27.679,0 34.328,-11.884 34.328,-28.753 0,-12.119 -3.918,-23.282 -18.527,-27.914 l 17.459,-31.367 -20.786,0 -16.274,29.225 z"
             style="fill:rgb(255,255,255);fill-opacity:1;fill-rule:nonzero;stroke:none"
             id="path3360"
             inkscape:connector-curvature="0" /></g><g
           id="g3362"
           transform="translate(736.3416,188.0645)"><path
             d="M 0,0 -13.784,35.048 -27.561,0 0,0 Z m -23.165,58.095 19.719,0 35.52,-88.623 -20.197,0 -5.699,14.49 -39.916,0 -5.7,-14.49 -19.011,0 35.284,88.623 z"
             style="fill:rgb(255,255,255);fill-opacity:1;fill-rule:nonzero;stroke:none"
             id="path3364"
             inkscape:connector-curvature="0" /></g><g
           id="g3366"
           transform="translate(802.6547,245.5632)"><path
             d="M 0,0 25.425,0 49.304,-60.113 73.183,0 98.49,0 l 0,-88.034 -19.012,0 0,58.809 -23.643,-58.809 -14.727,0 -23.525,58.449 0,-58.449 L 0,-88.034 0,0 Z"
             style="fill:rgb(255,255,255);fill-opacity:1;fill-rule:nonzero;stroke:none"
             id="path3368"
             inkscape:connector-curvature="0" /></g><g
           id="g3370"
           transform="translate(942.6281,245.5632)"><path
             d="m 0,0 66.173,0 0,-17.583 -46.69,0 0,-17.106 45.504,0 0,-16.993 -45.504,0 0,-19.483 47.162,0 0,-16.869 L 0,-88.034 0,0 Z"
             style="fill:rgb(255,255,255);fill-opacity:1;fill-rule:nonzero;stroke:none"
             id="path3372"
             inkscape:connector-curvature="0" /></g><g
           id="g3374"
           transform="translate(1040.4202,167.7494)"><path
             d="m 0,0 9.741,14.019 c 9.382,-6.302 20.316,-9.388 31.597,-9.388 17.229,0 20.433,3.328 20.433,10.692 0,7.245 -7.357,8.674 -20.905,10.573 C 17.341,29.225 5.11,33.502 5.11,52.625 c 0,19.601 11.877,26.617 36.706,26.617 17.937,0 28.871,-4.16 35.638,-8.673 L 67.005,55.481 c -5.588,3.682 -15.926,6.768 -25.425,6.768 -13.784,0 -17.105,-2.732 -17.105,-9.146 0,-7.128 7.246,-8.437 21.265,-10.455 21.14,-3.093 35.278,-6.532 35.278,-26.375 0,-17.819 -9.742,-27.797 -39.084,-27.797 C 24.475,-11.524 9.977,-7.37 0,0"
             style="fill:rgb(255,255,255);fill-opacity:1;fill-rule:nonzero;stroke:none"
             id="path3376"
             inkscape:connector-curvature="0" /></g><g
           id="g3378"
           transform="translate(1178.0083,227.9795)"><path
             d="m 0,0 -30.528,0 0,17.583 80.546,0 0,-17.583 -30.417,0 0,-70.445 L 0,-70.445 0,0 Z"
             style="fill:rgb(255,255,255);fill-opacity:1;fill-rule:nonzero;stroke:none"
             id="path3380"
             inkscape:connector-curvature="0" /></g><g
           id="g3382"
           transform="translate(1328.1954,201.2515)"><path
             d="m 0,0 c 0,17.223 -6.774,27.914 -26.971,27.914 -20.197,0 -26.964,-10.691 -26.964,-27.914 0,-17.229 6.767,-28.039 26.964,-28.039 C -6.774,-28.039 0,-17.229 0,0 m -73.536,0.353 c 0,33.031 18.533,45.387 46.565,45.387 28.039,0 46.69,-12.356 46.69,-45.387 0,-33.141 -18.651,-45.497 -46.69,-45.497 -28.032,0 -46.565,12.356 -46.565,45.497"
             style="fill:rgb(255,255,255);fill-opacity:1;fill-rule:nonzero;stroke:none"
             id="path3384"
             inkscape:connector-curvature="0" /></g><g
           id="g3386"
           transform="translate(1426.4663,203.5075)"><path
             d="m 0,0 c 10.567,0 15.323,2.614 15.323,12.591 0,10.22 -4.514,12.827 -15.565,12.827 l -22.687,0 L -22.929,0 0,0 Z m -3.21,-16.751 -19.719,0 0,-29.225 -19.005,0 0,88.034 42.524,0 c 27.678,0 34.334,-11.884 34.334,-28.753 C 34.924,1.186 31,-9.977 16.391,-14.609 l 17.465,-31.367 -20.787,0 -16.279,29.225 z"
             style="fill:rgb(255,255,255);fill-opacity:1;fill-rule:nonzero;stroke:none"
             id="path3388"
             inkscape:connector-curvature="0" /></g><g
           id="g3390"
           transform="translate(1500.0204,245.5632)"><path
             d="m 0,0 66.173,0 0,-17.583 -46.69,0 0,-17.106 45.504,0 0,-16.993 -45.504,0 0,-19.483 47.162,0 0,-16.869 L 0,-88.034 0,0 Z"
             style="fill:rgb(255,255,255);fill-opacity:1;fill-rule:nonzero;stroke:none"
             id="path3392"
             inkscape:connector-curvature="0" /></g><g
           id="g3394"
           transform="translate(342.0023,203.809)"><path
             d="m 0,0 c -7.894,-2.87 -63.906,-13.037 -68.119,-13.037 -4.225,0 -7.881,17.492 -0.589,20.597 6.046,2.542 55.566,13.167 59.995,13.167 C -4.324,20.727 7.914,2.83 0,0 m -21.409,-72.783 c -14.209,3.393 -44.286,15.631 -47.509,18.716 -3.243,3.105 -4.939,21.763 5.09,19.575 4.521,-0.989 46.952,-20.446 52.246,-23.171 5.28,-2.725 4.343,-18.494 -9.827,-15.12 m -77.415,-40.676 -7.042,0 c 0,0 -6.925,0.013 -9.945,7.199 -12.873,30.634 -33.863,81.667 -37.544,83.187 -3.938,1.631 -29.887,4.9 -46.5,7.003 l 0,-70.68 25.412,0 0,-17.322 -83.881,0 0,14.963 c 5.064,0.682 8.68,1.671 10.875,2.916 2.194,1.277 3.963,3.445 5.326,6.485 0.917,1.992 1.572,5.045 1.946,9.1 0.36,3.917 0.556,17.557 0.556,17.557 l 0,139.788 c 34.21,12.499 95.286,20.027 96.761,10.396 1.899,-12.407 1.591,-42.13 -20.525,-42.13 -7.914,0 -13.62,7.822 -17.007,19.647 -3.275,-1.205 -19.463,-6.82 -19.463,-6.82 l 0,-62.471 c 13.809,1.532 31.373,3.367 37.4,6.374 16.109,7.625 44.843,62.864 56.87,91.421 l 6.761,0 0,-216.613 z m 30.017,170.716 c 3.722,3.694 30.961,32.166 41.744,38.926 10.777,6.801 18.678,-7.147 16.234,-9.558 -2.457,-2.443 -45.871,-39.798 -48.754,-41.698 -5.633,-3.707 -12.945,8.654 -9.224,12.33 m -66.559,121.012 0,0.013 -0.295,-0.006 -0.288,0.006 0,-0.013 c -135.137,-0.983 -185.692,-60.166 -187.598,-183.418 1.906,-123.26 52.461,-182.443 187.598,-183.425 l 0,-0.007 0.288,0 0.295,0 0,0.007 C 0.406,-187.592 50.961,-128.409 52.868,-5.149 50.961,118.103 0.406,177.293 -135.366,178.269"
             style="fill:rgb(255,255,255);fill-opacity:1;fill-rule:nonzero;stroke:none"
             id="path3396"
             inkscape:connector-curvature="0" /></g></g></g></g></svg>
